<?xml version="1.0" encoding="UTF-8" standalone="no"?>
<!-- Created with Inkscape (http://www.inkscape.org/) -->

<svg
   xmlns:dc="http://purl.org/dc/elements/1.1/"
   xmlns:cc="http://creativecommons.org/ns#"
   xmlns:rdf="http://www.w3.org/1999/02/22-rdf-syntax-ns#"
   xmlns:svg="http://www.w3.org/2000/svg"
   xmlns="http://www.w3.org/2000/svg"
   xmlns:xlink="http://www.w3.org/1999/xlink"
   xmlns:sodipodi="http://sodipodi.sourceforge.net/DTD/sodipodi-0.dtd"
   xmlns:inkscape="http://www.inkscape.org/namespaces/inkscape"
   width="48px"
   height="48px"
   id="svg3419"
   version="1.1"
   inkscape:version="0.48.4 r9939"
   sodipodi:docname="Gauge_Layer_4.svg">
  <defs
     id="defs3421">
    <linearGradient
       inkscape:collect="always"
       xlink:href="#linearGradient12517-4"
       id="linearGradient7406"
       gradientUnits="userSpaceOnUse"
       x1="656.42859"
       y1="320.93362"
       x2="506.42856"
       y2="131.6479" />
    <linearGradient
       id="linearGradient12517-4"
       inkscape:collect="always">
      <stop
         id="stop12519-5"
         offset="0"
         style="stop-color:#666666;stop-opacity:1" />
      <stop
         id="stop12521-5"
         offset="1"
         style="stop-color:#ffffff;stop-opacity:1" />
    </linearGradient>
    <linearGradient
       inkscape:collect="always"
       xlink:href="#linearGradient12170-1"
       id="linearGradient7408"
       gradientUnits="userSpaceOnUse"
       x1="472.72467"
       y1="111.384"
       x2="671.30804"
       y2="311.54971" />
    <linearGradient
       id="linearGradient12170-1"
       inkscape:collect="always">
      <stop
         id="stop12172-7"
         offset="0"
         style="stop-color:#666666;stop-opacity:1" />
      <stop
         id="stop12174-1"
         offset="1"
         style="stop-color:#ffffff;stop-opacity:1" />
    </linearGradient>
    <linearGradient
       inkscape:collect="always"
       xlink:href="#linearGradient12160-1"
       id="linearGradient7410"
       gradientUnits="userSpaceOnUse"
       x1="656.42859"
       y1="320.93362"
       x2="506.42856"
       y2="131.6479" />
    <linearGradient
       inkscape:collect="always"
       id="linearGradient12160-1">
      <stop
         style="stop-color:#666666;stop-opacity:1"
         offset="0"
         id="stop12162-5" />
      <stop
         style="stop-color:#b3b3b3;stop-opacity:0;"
         offset="1"
         id="stop12164-2" />
    </linearGradient>
    <linearGradient
       inkscape:collect="always"
       xlink:href="#linearGradient12170-1"
       id="linearGradient7412"
       gradientUnits="userSpaceOnUse"
       x1="472.72467"
       y1="111.384"
       x2="671.30804"
       y2="311.54971" />
  </defs>
  <sodipodi:namedview
     id="base"
     pagecolor="#ffffff"
     bordercolor="#666666"
     borderopacity="1.0"
     inkscape:pageopacity="0.0"
     inkscape:pageshadow="2"
     inkscape:zoom="7"
     inkscape:cx="7.1428571"
     inkscape:cy="24"
     inkscape:current-layer="layer1"
     showgrid="true"
     inkscape:grid-bbox="true"
     inkscape:document-units="px"
     inkscape:window-width="1920"
     inkscape:window-height="1056"
     inkscape:window-x="0"
     inkscape:window-y="24"
     inkscape:window-maximized="1" />
  <metadata
     id="metadata3424">
    <rdf:RDF>
      <cc:Work
         rdf:about="">
        <dc:format>image/svg+xml</dc:format>
        <dc:type
           rdf:resource="http://purl.org/dc/dcmitype/StillImage" />
        <dc:title></dc:title>
      </cc:Work>
    </rdf:RDF>
  </metadata>
  <g
     inkscape:groupmode="layer"
     id="layer3"
     inkscape:label="Слой#1"
     style="display:none">
    <text
       xml:space="preserve"
       style="font-size:3.83460617px;font-style:normal;font-variant:normal;font-weight:normal;font-stretch:normal;text-align:start;line-height:125%;letter-spacing:0px;word-spacing:0px;writing-mode:lr-tb;text-anchor:start;fill:#00ff00;fill-opacity:1;stroke:none;display:inline;font-family:Eurostile;-inkscape-font-specification:Eurostile"
       x="16.956524"
       y="40.012894"
       id="text7402"
       sodipodi:linespacing="125%"
       inkscape:export-filename="/home/zag/Syncthing/Work/Cloud/scada-env/build/assets/Gauge_Composite1.svg.png"
       inkscape:export-xdpi="90"
       inkscape:export-ydpi="90"
       transform="scale(1.0334788,0.96760569)"><tspan
         sodipodi:role="line"
         id="tspan7404"
         x="16.956524"
         y="40.012894">14581</tspan></text>
  </g>
  <g
     id="layer1"
     inkscape:label="Layer 1"
     inkscape:groupmode="layer"
     style="display:none">
    <g
       transform="matrix(0.36999384,0,0,0.34641072,-56.883789,-77.848824)"
       id="g7274"
       inkscape:export-filename="/home/zag/Syncthing/Work/Cloud/scada-env/build/assets/Gauge_Composite1.svg.png"
       inkscape:export-xdpi="90"
       inkscape:export-ydpi="90">
      <path
         transform="matrix(0.46990367,0,0,0.46990367,-48.489633,190.39071)"
         d="m 705.00003,217.00504 a 135.35715,135.35715 0 1 1 -270.71429,0 135.35715,135.35715 0 1 1 270.71429,0 z"
         sodipodi:ry="135.35715"
         sodipodi:rx="135.35715"
         sodipodi:cy="217.00504"
         sodipodi:cx="569.64288"
         id="path7276"
         style="opacity:0.41592922;fill:#333333;fill-opacity:1;stroke:none"
         sodipodi:type="arc" />
      <path
         sodipodi:type="arc"
         style="fill:url(#linearGradient7406);fill-opacity:1;stroke:#999999;stroke-width:1.25;stroke-linecap:round;stroke-linejoin:miter;stroke-miterlimit:4;stroke-opacity:1;stroke-dasharray:none;stroke-dashoffset:0"
         id="path7278"
         sodipodi:cx="569.64288"
         sodipodi:cy="217.00504"
         sodipodi:rx="135.35715"
         sodipodi:ry="135.35715"
         d="m 705.00003,217.00504 a 135.35715,135.35715 0 1 1 -270.71429,0 135.35715,135.35715 0 1 1 270.71429,0 z"
         transform="matrix(0.45664995,0,0,0.45664995,-41.755203,192.12521)" />
      <path
         transform="matrix(0.41227425,0,0,0.41227425,-16.476903,201.75496)"
         d="m 705.00003,217.00504 a 135.35715,135.35715 0 1 1 -270.71429,0 135.35715,135.35715 0 1 1 270.71429,0 z"
         sodipodi:ry="135.35715"
         sodipodi:rx="135.35715"
         sodipodi:cy="217.00504"
         sodipodi:cx="569.64288"
         id="path7280"
         style="fill:url(#linearGradient7408);fill-opacity:1;stroke:#ffffff;stroke-width:1.25;stroke-linecap:round;stroke-linejoin:miter;stroke-miterlimit:4;stroke-opacity:1;stroke-dasharray:none;stroke-dashoffset:0"
         sodipodi:type="arc" />
      <path
         sodipodi:type="arc"
         style="fill:#f9f9f9;stroke:#b3b3b3;stroke-width:1.25;stroke-linecap:round;stroke-linejoin:miter;stroke-miterlimit:4;stroke-opacity:1;stroke-dasharray:none;stroke-dashoffset:0"
         id="path7282"
         sodipodi:cx="569.64288"
         sodipodi:cy="217.00504"
         sodipodi:rx="135.35715"
         sodipodi:ry="135.35715"
         d="m 705.00003,217.00504 a 135.35715,135.35715 0 1 1 -270.71429,0 135.35715,135.35715 0 1 1 270.71429,0 z"
         transform="matrix(0.38948673,0,0,0.38948673,-3.4961528,206.69996)" />
      <path
         style="fill:#1a1a1a;fill-opacity:1;stroke:#ffffff;stroke-width:0.57081246;stroke-linecap:round;stroke-linejoin:miter;stroke-miterlimit:4;stroke-opacity:1;stroke-dasharray:none;stroke-dashoffset:0"
         d="m 205.11302,322.01969 c -3.97546,0 -7.1637,3.20251 -7.1637,7.17797 l 0,10.01776 c 0,0.21506 0.0102,0.43201 0.0285,0.64216 6.27294,2.63356 13.16261,4.08131 20.39228,4.08131 6.56267,0 12.84164,-1.20524 18.63702,-3.39633 0.0793,-0.42874 0.12844,-0.87476 0.12844,-1.32714 l 0,-10.01776 c 0,-3.97546 -3.20251,-7.17797 -7.17797,-7.17797 l -24.84461,0 z"
         id="path7284"
         inkscape:connector-curvature="0" />
      <g
         transform="matrix(0.45664995,0,0,0.45664995,128.50999,193.42992)"
         id="g7286">
        <path
           sodipodi:type="arc"
           style="fill:url(#linearGradient7410);fill-opacity:1;stroke:#999999;stroke-width:1.25;stroke-linecap:round;stroke-linejoin:miter;stroke-miterlimit:4;stroke-opacity:1;stroke-dasharray:none;stroke-dashoffset:0"
           id="path7288"
           sodipodi:cx="569.64288"
           sodipodi:cy="217.00504"
           sodipodi:rx="135.35715"
           sodipodi:ry="135.35715"
           d="m 705.00003,217.00504 a 135.35715,135.35715 0 1 1 -270.71429,0 135.35715,135.35715 0 1 1 270.71429,0 z"
           transform="matrix(0.10177284,0,0,0.10177284,137.74012,194.85683)" />
        <path
           transform="matrix(-0.06497102,0.06497102,-0.06497102,-0.06497102,246.82361,194.03081)"
           d="m 705.00003,217.00504 a 135.35715,135.35715 0 1 1 -270.71429,0 135.35715,135.35715 0 1 1 270.71429,0 z"
           sodipodi:ry="135.35715"
           sodipodi:rx="135.35715"
           sodipodi:cy="217.00504"
           sodipodi:cx="569.64288"
           id="path7290"
           style="fill:url(#linearGradient7412);fill-opacity:1;stroke:#ffffff;stroke-width:1.25;stroke-linecap:round;stroke-linejoin:miter;stroke-miterlimit:4;stroke-opacity:1;stroke-dasharray:none;stroke-dashoffset:0"
           sodipodi:type="arc" />
      </g>
    </g>
    <g
       transform="matrix(0.36999384,0,0,0.34641072,-3.7290052,-123.57504)"
       style="fill:#000000"
       id="g7292"
       inkscape:export-filename="/home/zag/Syncthing/Work/Cloud/scada-env/build/assets/Gauge_Composite1.svg.png"
       inkscape:export-xdpi="90"
       inkscape:export-ydpi="90">
      <g
         id="g7294"
         style="font-size:16px;font-style:normal;font-variant:normal;font-weight:normal;font-stretch:normal;text-align:start;line-height:125%;letter-spacing:0px;word-spacing:0px;writing-mode:lr-tb;text-anchor:start;fill:#000000;fill-opacity:1;stroke:none;font-family:Century Gothic;-inkscape-font-specification:Century Gothic"
         inkscape:transform-center-y="-35.139089"
         inkscape:transform-center-x="-1.1884273"
         transform="matrix(0.43292966,-0.14526212,0.14526212,0.43292966,-139.92351,295.77929)">
        <path
           inkscape:connector-curvature="0"
           id="path7296"
           style="font-size:16px;font-style:normal;font-variant:normal;font-weight:normal;font-stretch:normal;text-align:start;line-height:125%;writing-mode:lr-tb;text-anchor:start;fill:#000000;font-family:Century Gothic;-inkscape-font-specification:Century Gothic"
           d="m 243.94893,410.24494 0.0986,-2.25566 11.48123,0.50175 -0.0498,1.13954 -10.3573,-0.45263 -0.0788,1.80296 z" />
        <path
           inkscape:connector-curvature="0"
           id="path7298"
           style="font-size:16px;font-style:normal;font-variant:normal;font-weight:normal;font-stretch:normal;text-align:start;line-height:125%;writing-mode:lr-tb;text-anchor:start;fill:#000000;font-family:Century Gothic;-inkscape-font-specification:Century Gothic"
           d="m 250.0621,403.57407 c -1.50246,-0.19927 -2.64277,-0.5147 -3.42091,-0.94627 -0.77813,-0.43158 -1.33985,-0.96974 -1.68517,-1.61449 -0.3453,-0.64475 -0.46967,-1.33112 -0.37313,-2.05912 0.0979,-0.73832 0.39959,-1.3787 0.90498,-1.92113 0.5054,-0.54242 1.20716,-0.93139 2.10529,-1.16692 0.89815,-0.23551 2.06489,-0.25809 3.50023,-0.0677 1.43019,0.18969 2.54589,0.51236 3.3471,0.96801 0.80121,0.45566 1.37732,1.01411 1.72832,1.67537 0.35099,0.66127 0.47753,1.36107 0.37961,2.09939 -0.0966,0.728 -0.39263,1.35598 -0.88823,1.88395 -0.49559,0.52796 -1.17947,0.90092 -2.05163,1.11887 -0.87217,0.21795 -2.05432,0.22797 -3.54646,0.0301 z m 0.16601,-1.07343 c 1.28562,0.17052 2.27281,0.18455 2.96158,0.0421 0.68877,-0.14244 1.23333,-0.41567 1.63367,-0.81966 0.40034,-0.404 0.63373,-0.8564 0.70015,-1.35723 0.0671,-0.50598 -0.0367,-1.00049 -0.31155,-1.48353 -0.27482,-0.48303 -0.73018,-0.8823 -1.36609,-1.19782 -0.77295,-0.39148 -1.72994,-0.66289 -2.871,-0.81424 -1.1462,-0.15201 -2.10138,-0.14998 -2.86552,0.006 -0.76413,0.1561 -1.3449,0.43503 -1.74233,0.83678 -0.39741,0.40176 -0.62899,0.85047 -0.69474,1.34612 -0.0671,0.50599 0.039,1.00342 0.31827,1.4923 0.27931,0.48889 0.73269,0.89315 1.36017,1.2128 0.62749,0.31965 1.58662,0.56508 2.87739,0.73627 z" />
        <path
           inkscape:connector-curvature="0"
           id="path7300"
           style="font-size:16px;font-style:normal;font-variant:normal;font-weight:normal;font-stretch:normal;text-align:start;line-height:125%;writing-mode:lr-tb;text-anchor:start;fill:#000000;font-family:Century Gothic;-inkscape-font-specification:Century Gothic"
           d="m 256.82042,369.71482 -0.47342,0.99464 c -1.01177,-0.51618 -1.69073,-1.25898 -2.03687,-2.22841 -0.34613,-0.9694 -0.28976,-1.93615 0.1691,-2.90023 0.45441,-0.95466 1.13009,-1.58048 2.02707,-1.87746 0.89699,-0.29696 1.76403,-0.24623 2.60113,0.1522 0.58785,0.27981 1.0721,0.68334 1.45275,1.2106 0.38066,0.52728 0.81707,1.407 1.30925,2.63916 l 1.55753,3.90808 2.27981,-4.7898 1.00169,0.47678 -3.35423,7.04715 -2.39493,-6.00252 c -0.47785,-1.2138 -0.86723,-2.04085 -1.16815,-2.48115 -0.30092,-0.44028 -0.68182,-0.77011 -1.1427,-0.98948 -0.58314,-0.27755 -1.18869,-0.299 -1.81664,-0.0643 -0.62795,0.23468 -1.0919,0.6671 -1.39185,1.29727 -0.31561,0.6631 -0.35703,1.31971 -0.12426,1.96982 0.23278,0.65013 0.73435,1.19602 1.50472,1.63768 z" />
        <path
           inkscape:connector-curvature="0"
           id="path7302"
           style="font-size:16px;font-style:normal;font-variant:normal;font-weight:normal;font-stretch:normal;text-align:start;line-height:125%;writing-mode:lr-tb;text-anchor:start;fill:#000000;font-family:Century Gothic;-inkscape-font-specification:Century Gothic"
           d="m 262.27974,363.4033 c -1.30522,-0.77037 -2.23169,-1.5062 -2.77941,-2.20746 -0.5477,-0.70126 -0.85455,-1.4161 -0.92056,-2.14452 -0.066,-0.7284 0.0876,-1.40882 0.46092,-2.04126 0.37858,-0.6414 0.90643,-1.11304 1.58356,-1.41494 0.67714,-0.30188 1.4751,-0.3858 2.39387,-0.25176 0.91878,0.13407 2.00163,0.56908 3.24855,1.30503 1.24243,0.73333 2.14342,1.46621 2.70297,2.19864 0.55954,0.73245 0.87171,1.47159 0.9365,2.21742 0.0648,0.74585 -0.0921,1.43947 -0.47069,2.08086 -0.37328,0.63244 -0.89115,1.09486 -1.55361,1.38726 -0.66246,0.29241 -1.4377,0.36857 -2.3257,0.22849 -0.888,-0.14008 -1.98013,-0.59267 -3.2764,-1.35776 z m 0.57216,-0.92328 c 1.11685,0.6592 2.02012,1.05777 2.7098,1.19571 0.68969,0.13794 1.29771,0.0992 1.82406,-0.11634 0.52636,-0.2155 0.91793,-0.54078 1.17472,-0.97586 0.25944,-0.43956 0.35702,-0.93535 0.29275,-1.48736 -0.0643,-0.552 -0.32748,-1.09744 -0.78961,-1.63631 -0.55859,-0.66232 -1.33351,-1.28602 -2.32477,-1.87109 -0.99574,-0.58771 -1.87581,-0.95897 -2.64021,-1.1138 -0.76439,-0.15481 -1.40798,-0.12493 -1.93077,0.0896 -0.52278,0.21459 -0.91125,0.53717 -1.1654,0.96775 -0.25944,0.43957 -0.3561,0.93893 -0.28999,1.49806 0.0661,0.55915 0.32556,1.10841 0.7783,1.64778 0.45275,0.53938 1.23979,1.13999 2.36112,1.80182 z" />
        <path
           inkscape:connector-curvature="0"
           id="path7304"
           style="font-size:16px;font-style:normal;font-variant:normal;font-weight:normal;font-stretch:normal;text-align:start;line-height:125%;writing-mode:lr-tb;text-anchor:start;fill:#000000;font-family:Century Gothic;-inkscape-font-specification:Century Gothic"
           d="m 281.26082,333.99325 -0.87454,0.78003 c -0.4716,-0.84954 -0.65183,-1.66585 -0.54071,-2.44893 0.11114,-0.78305 0.47377,-1.44846 1.08789,-1.99623 0.447,-0.39867 0.95487,-0.66846 1.52362,-0.80936 0.56875,-0.14087 1.11332,-0.13282 1.6337,0.0242 0.52038,0.157 0.94872,0.42401 1.285,0.80103 0.65869,0.73851 0.81314,1.65111 0.46333,2.73777 0.56109,-0.20034 1.11766,-0.25708 1.66971,-0.17022 0.77876,0.12196 1.41948,0.46473 1.92217,1.02832 0.43335,0.48587 0.7185,1.06379 0.85546,1.73375 0.13694,0.66998 0.0913,1.32307 -0.13682,1.95927 -0.22817,0.63621 -0.61627,1.19872 -1.16432,1.68754 -0.73851,0.6587 -1.54439,0.99538 -2.41764,1.01005 -0.87325,0.0147 -1.75315,-0.3224 -2.63971,-1.01121 l 0.83957,-0.74884 c 0.64345,0.42409 1.21411,0.63744 1.71195,0.64006 0.63452,-6.4e-4 1.2258,-0.24538 1.77386,-0.7342 0.6219,-0.55469 0.95495,-1.18674 0.99917,-1.89617 0.0442,-0.70942 -0.15729,-1.31483 -0.60451,-1.81625 -0.29815,-0.33426 -0.67149,-0.56309 -1.12001,-0.68647 -0.44853,-0.12337 -0.89705,-0.11763 -1.34557,0.0172 -0.44852,0.13485 -1.02071,0.4812 -1.71657,1.03904 l -0.70203,-0.7871 c 0.39258,-0.35014 0.68863,-0.73808 0.88817,-1.16382 0.19954,-0.42572 0.27685,-0.81048 0.23194,-1.15427 -0.0449,-0.34378 -0.18005,-0.64199 -0.40539,-0.89465 -0.33282,-0.37313 -0.76924,-0.56313 -1.30926,-0.57002 -0.54002,-0.007 -1.03742,0.19252 -1.49219,0.59813 -0.36925,0.32935 -0.59523,0.71761 -0.67796,1.16476 -0.0827,0.44717 0.005,1.00271 0.26169,1.66663 z" />
        <path
           inkscape:connector-curvature="0"
           id="path7306"
           style="font-size:16px;font-style:normal;font-variant:normal;font-weight:normal;font-stretch:normal;text-align:start;line-height:125%;writing-mode:lr-tb;text-anchor:start;fill:#000000;font-family:Century Gothic;-inkscape-font-specification:Century Gothic"
           d="m 289.16258,331.17056 c -0.90516,-1.21563 -1.47449,-2.25276 -1.70798,-3.1114 -0.23348,-0.85862 -0.23964,-1.63651 -0.0185,-2.33367 0.22117,-0.69714 0.62626,-1.26501 1.21528,-1.70361 0.59738,-0.4448 1.26667,-0.6753 2.00788,-0.69149 0.7412,-0.0162 1.50942,0.2154 2.30463,0.6947 0.79522,0.47933 1.6252,1.29966 2.48993,2.46099 0.86162,1.15716 1.4086,2.18172 1.64093,3.07367 0.23233,0.89196 0.23397,1.69431 0.005,2.40706 -0.22904,0.71275 -0.64225,1.29153 -1.23962,1.73634 -0.58902,0.43859 -1.24554,0.66444 -1.96954,0.67756 -0.72401,0.0131 -1.46827,-0.2168 -2.23279,-0.68977 -0.76451,-0.47296 -1.59624,-1.31308 -2.49519,-2.52038 z m 0.885,-0.62975 c 0.77453,1.0402 1.45304,1.75739 2.03553,2.1516 0.58249,0.39421 1.15811,0.59386 1.72684,0.59895 0.56874,0.005 1.05571,-0.14322 1.46093,-0.44494 0.40939,-0.30483 0.69131,-0.72417 0.84577,-1.25802 0.15445,-0.53384 0.12295,-1.13864 -0.0945,-1.8144 -0.2586,-0.82693 -0.73161,-1.70201 -1.41904,-2.62524 -0.69055,-0.92739 -1.35824,-1.61043 -2.00307,-2.04914 -0.64484,-0.43868 -1.24981,-0.66031 -1.8149,-0.66488 -0.56509,-0.005 -1.04815,0.14247 -1.44919,0.44108 -0.40939,0.30484 -0.69185,0.72782 -0.84737,1.26894 -0.15552,0.54114 -0.12897,1.14801 0.0796,1.8206 0.20861,0.67261 0.70174,1.53109 1.47937,2.57545 z" />
        <path
           inkscape:connector-curvature="0"
           id="path7308"
           style="font-size:16px;font-style:normal;font-variant:normal;font-weight:normal;font-stretch:normal;text-align:start;line-height:125%;writing-mode:lr-tb;text-anchor:start;fill:#000000;font-family:Century Gothic;-inkscape-font-specification:Century Gothic"
           d="m 321.5625,307.09724 0.22183,-0.0756 2.58496,7.57911 1.31618,-0.4489 0.35559,1.04259 -1.31618,0.44891 0.8625,2.52883 -1.08696,0.37072 -0.86249,-2.52883 -5.19817,1.7729 z m 1.71984,7.87419 -1.54594,-4.53269 -1.65578,5.62467 z" />
        <path
           inkscape:connector-curvature="0"
           id="path7310"
           style="font-size:16px;font-style:normal;font-variant:normal;font-weight:normal;font-stretch:normal;text-align:start;line-height:125%;writing-mode:lr-tb;text-anchor:start;fill:#000000;font-family:Century Gothic;-inkscape-font-specification:Century Gothic"
           d="m 326.45586,311.88145 c -0.35922,-1.47243 -0.47884,-2.64949 -0.35887,-3.53118 0.11997,-0.88167 0.41776,-1.60033 0.89336,-2.15598 0.47561,-0.55563 1.07014,-0.92048 1.78359,-1.09455 0.72357,-0.17651 1.42975,-0.12765 2.11855,0.14659 0.68879,0.27426 1.3058,0.78717 1.85103,1.53872 0.54522,0.75158 0.98942,1.83069 1.3326,3.23734 0.34193,1.40161 0.44588,2.55837 0.31185,3.47028 -0.13404,0.91192 -0.44553,1.65135 -0.93446,2.21828 -0.48894,0.56693 -1.0952,0.93866 -1.81876,1.11518 -0.71345,0.17406 -1.40606,0.12591 -2.07782,-0.14446 -0.67176,-0.27036 -1.26736,-0.77241 -1.78679,-1.50614 -0.51943,-0.73373 -0.95752,-1.83175 -1.31428,-3.29408 z m 1.06055,-0.23461 c 0.30738,1.25993 0.65234,2.18499 1.0349,2.7752 0.38256,0.59021 0.83468,0.99859 1.35637,1.22515 0.52168,0.22656 1.02793,0.27997 1.51875,0.16023 0.49587,-0.12097 0.91904,-0.39711 1.26952,-0.8284 0.35047,-0.43129 0.5574,-1.00046 0.6208,-1.70751 0.0845,-0.8623 -0.01,-1.85257 -0.28248,-2.97082 -0.27405,-1.1233 -0.62238,-2.0127 -1.04498,-2.6682 -0.42262,-0.65548 -0.89319,-1.09555 -1.41173,-1.32021 -0.51854,-0.22463 -1.02069,-0.2777 -1.50644,-0.15921 -0.49587,0.12099 -0.92096,0.40027 -1.27525,0.83784 -0.3543,0.4376 -0.5666,1.00674 -0.63691,1.70742 -0.0703,0.7007 0.0488,1.68354 0.35745,2.94851 z" />
        <path
           inkscape:connector-curvature="0"
           id="path7312"
           style="font-size:16px;font-style:normal;font-variant:normal;font-weight:normal;font-stretch:normal;text-align:start;line-height:125%;writing-mode:lr-tb;text-anchor:start;fill:#000000;font-family:Century Gothic;-inkscape-font-specification:Century Gothic"
           d="m 366.68428,302.70022 -0.0759,1.09111 -4.08387,-0.28421 -0.78643,3.08566 c 0.50891,-0.11076 0.96341,-0.15223 1.36349,-0.12439 1.04434,0.0727 1.88122,0.48203 2.51064,1.22804 0.62941,0.74603 0.90615,1.66459 0.83022,2.7557 -0.0524,0.75339 -0.27458,1.43231 -0.66645,2.03677 -0.39187,0.60446 -0.89692,1.05355 -1.51515,1.34728 -0.61825,0.29372 -1.31705,0.41347 -2.09641,0.35923 -0.93004,-0.0647 -1.69481,-0.40379 -2.29429,-1.0172 -0.59949,-0.61341 -0.93012,-1.37649 -0.9919,-2.28923 l 1.17684,0.0819 c 0.0576,0.44779 0.18202,0.81669 0.37329,1.10671 0.19126,0.29002 0.45637,0.53166 0.79534,0.72493 0.33896,0.19327 0.70068,0.30328 1.08517,0.33004 0.75338,0.0524 1.42014,-0.18832 2.00028,-0.72225 0.58013,-0.53393 0.90003,-1.22954 0.9597,-2.08684 0.0539,-0.77417 -0.14658,-1.41985 -0.60135,-1.93705 -0.45478,-0.51719 -1.09004,-0.80417 -1.90577,-0.86095 -0.67545,-0.047 -1.50807,0.10129 -2.49784,0.44485 l 1.45587,-5.6156 z" />
        <path
           inkscape:connector-curvature="0"
           id="path7314"
           style="font-size:16px;font-style:normal;font-variant:normal;font-weight:normal;font-stretch:normal;text-align:start;line-height:125%;writing-mode:lr-tb;text-anchor:start;fill:#000000;font-family:Century Gothic;-inkscape-font-specification:Century Gothic"
           d="m 368.3025,308.64348 c 0.23843,-1.49674 0.58352,-2.62842 1.03526,-3.39503 0.45174,-0.7666 1.00439,-1.31408 1.65793,-1.64245 0.65354,-0.32835 1.34293,-0.43476 2.06817,-0.31925 0.73551,0.11718 1.36779,0.43546 1.89684,0.95483 0.52904,0.51939 0.89956,1.23107 1.11156,2.13504 0.21199,0.90399 0.20409,2.07092 -0.0237,3.5008 -0.22697,1.42475 -0.57866,2.53165 -1.05506,3.32069 -0.47642,0.78904 -1.04973,1.35037 -1.71993,1.68399 -0.67021,0.33361 -1.37307,0.44184 -2.10858,0.32467 -0.72523,-0.11553 -1.34527,-0.4279 -1.86012,-0.9371 -0.51484,-0.50921 -0.86982,-1.20259 -1.06492,-2.08015 -0.19511,-0.87756 -0.17427,-2.05957 0.0625,-3.54604 z m 1.06873,0.19398 c -0.20402,1.28073 -0.24382,2.26722 -0.1194,2.95948 0.12441,0.69225 0.38332,1.24376 0.77673,1.65451 0.3934,0.41075 0.83956,0.65587 1.33849,0.73534 0.50405,0.0803 1.0011,-0.0106 1.49115,-0.27272 0.49004,-0.26211 0.90107,-0.70689 1.23308,-1.33435 0.41153,-0.76246 0.70783,-1.71204 0.88891,-2.84876 0.18189,-1.14184 0.20479,-2.09674 0.0687,-2.8647 -0.1361,-0.76794 -0.39977,-1.3558 -0.791,-1.76358 -0.39126,-0.40777 -0.83376,-0.65098 -1.32753,-0.72965 -0.50407,-0.0803 -1.0041,0.0128 -1.5001,0.27921 -0.49601,0.26644 -0.91198,0.70912 -1.2479,1.32803 -0.33593,0.61893 -0.60631,1.57133 -0.81114,2.85719 z" />
        <path
           inkscape:connector-curvature="0"
           id="path7316"
           style="font-size:16px;font-style:normal;font-variant:normal;font-weight:normal;font-stretch:normal;text-align:start;line-height:125%;writing-mode:lr-tb;text-anchor:start;fill:#000000;font-family:Century Gothic;-inkscape-font-specification:Century Gothic"
           d="m 407.31597,314.63977 0.56288,0.97863 -4.89644,2.78639 c 0.43514,0.0635 0.8152,0.1779 1.14019,0.34315 0.81244,0.41314 1.35254,1.05736 1.62031,1.93266 0.26774,0.8753 0.18325,1.74239 -0.25349,2.60126 -0.29982,0.58961 -0.70768,1.0527 -1.22356,1.38928 -0.5159,0.33657 -1.09712,0.51723 -1.74366,0.54196 -0.64655,0.0247 -1.25998,-0.11046 -1.8403,-0.40555 -0.56175,-0.28566 -1.01383,-0.68645 -1.35623,-1.20238 -0.3424,-0.51593 -0.52543,-1.0896 -0.5491,-1.72099 -0.0237,-0.6314 0.10732,-1.22798 0.39298,-1.78973 0.21247,-0.41783 0.52088,-0.81463 0.92523,-1.1904 0.40435,-0.37576 0.98998,-0.77767 1.75689,-1.20572 z m -3.89391,4.88257 c -0.59426,-0.30218 -1.20828,-0.35002 -1.84208,-0.14352 -0.63381,0.20651 -1.10298,0.6092 -1.40752,1.20809 -0.30218,0.59425 -0.35002,1.20828 -0.14352,1.84208 0.2065,0.6338 0.60688,1.10179 1.20113,1.40397 0.59424,0.30218 1.20827,0.35002 1.84208,0.14352 0.6338,-0.2065 1.10179,-0.60688 1.40397,-1.20112 0.30454,-0.5989 0.35356,-1.21524 0.14706,-1.84905 -0.20651,-0.6338 -0.60688,-1.10179 -1.20112,-1.40397 z" />
        <path
           inkscape:connector-curvature="0"
           id="path7318"
           style="font-size:16px;font-style:normal;font-variant:normal;font-weight:normal;font-stretch:normal;text-align:start;line-height:125%;writing-mode:lr-tb;text-anchor:start;fill:#000000;font-family:Century Gothic;-inkscape-font-specification:Century Gothic"
           d="m 408.13902,321.90999 c 0.80416,-1.28469 1.5639,-2.19165 2.27921,-2.72089 0.71531,-0.52922 1.43791,-0.81732 2.1678,-0.8643 0.72988,-0.047 1.40606,0.12436 2.02855,0.514 0.6313,0.39519 1.08901,0.93516 1.37315,1.61993 0.28411,0.68479 0.34719,1.48466 0.18923,2.39962 -0.15799,0.91497 -0.6211,1.9861 -1.38933,3.2134 -0.76548,1.22289 -1.52162,2.10446 -2.2684,2.64471 -0.74679,0.54024 -1.49382,0.83302 -2.24109,0.87833 -0.74728,0.0453 -1.43657,-0.12963 -2.06788,-0.5248 -0.62248,-0.38965 -1.07123,-0.9194 -1.34626,-1.58927 -0.27503,-0.66986 -0.33094,-1.44682 -0.16774,-2.33087 0.1632,-0.88404 0.64411,-1.964 1.44276,-3.23986 z m 0.90804,0.59604 c -0.68811,1.09928 -1.1101,1.99184 -1.26598,2.6777 -0.15589,0.68585 -0.13298,1.29467 0.0687,1.82647 0.2017,0.53179 0.51666,0.93172 0.94489,1.19977 0.43264,0.27082 0.92572,0.3813 1.47922,0.33145 0.55349,-0.0499 1.1056,-0.29875 1.65635,-0.74666 0.67666,-0.54112 1.32036,-1.29952 1.93109,-2.27518 0.61348,-0.98007 1.00758,-1.85015 1.18229,-2.61025 0.1747,-0.7601 0.16162,-1.40425 -0.0392,-1.93246 -0.20088,-0.5282 -0.51322,-0.92494 -0.93703,-1.19024 -0.43265,-0.27081 -0.92931,-0.38047 -1.48998,-0.32897 -0.56068,0.0515 -1.11652,0.29653 -1.66752,0.73505 -0.55101,0.43853 -1.17194,1.20964 -1.8628,2.31332 z" />
        <path
           inkscape:connector-curvature="0"
           id="path7320"
           style="font-size:16px;font-style:normal;font-variant:normal;font-weight:normal;font-stretch:normal;text-align:start;line-height:125%;writing-mode:lr-tb;text-anchor:start;fill:#000000;font-family:Century Gothic;-inkscape-font-specification:Century Gothic"
           d="m 438.45295,339.18771 4.70909,5.56372 -12.96478,2.91818 -0.24099,-1.03449 11.2261,-2.54175 -3.55832,-4.20409 z" />
        <path
           inkscape:connector-curvature="0"
           id="path7322"
           style="font-size:16px;font-style:normal;font-variant:normal;font-weight:normal;font-stretch:normal;text-align:start;line-height:125%;writing-mode:lr-tb;text-anchor:start;fill:#000000;font-family:Century Gothic;-inkscape-font-specification:Century Gothic"
           d="m 439.66233,349.62089 c 1.23876,-0.87326 2.29035,-1.41543 3.15476,-1.62651 0.8644,-0.21108 1.64218,-0.19701 2.33336,0.0422 0.69116,0.23922 1.24831,0.65894 1.67144,1.25916 0.42912,0.60875 0.64213,1.2838 0.63905,2.02518 -0.003,0.74138 -0.25457,1.50331 -0.75439,2.2858 -0.49984,0.78248 -1.34147,1.59085 -2.52489,2.4251 -1.17917,0.83124 -2.2176,1.35139 -3.11529,1.56046 -0.8977,0.20905 -1.69983,0.18984 -2.40638,-0.0576 -0.70656,-0.2475 -1.2744,-0.67561 -1.70352,-1.28435 -0.42313,-0.60022 -0.63184,-1.26239 -0.62612,-1.98649 0.006,-0.72411 0.2549,-1.46214 0.74758,-2.21409 0.49268,-0.75196 1.35415,-1.56156 2.5844,-2.42882 z m 0.60653,0.90107 c -1.05998,0.74722 -1.79458,1.40685 -2.20379,1.9789 -0.40922,0.57205 -0.62377,1.14227 -0.64365,1.71069 -0.0199,0.5684 0.11572,1.05907 0.40681,1.472 0.29408,0.41717 0.70595,0.7099 1.2356,0.87819 0.52964,0.16827 1.13506,0.15251 1.81624,-0.0473 0.83338,-0.23701 1.72047,-0.68711 2.66125,-1.3503 0.94503,-0.6662 1.64521,-1.3159 2.10053,-1.94912 0.4553,-0.63321 0.69258,-1.23221 0.71184,-1.79699 0.0193,-0.56478 -0.11517,-1.05151 -0.40324,-1.46017 -0.2941,-0.41718 -0.7096,-0.71054 -1.24649,-0.88008 -0.53692,-0.16953 -1.14427,-0.15878 -1.82206,0.0323 -0.6778,0.19106 -1.54882,0.66169 -2.61304,1.41191 z" />
        <path
           inkscape:connector-curvature="0"
           id="path7324"
           style="font-size:16px;font-style:normal;font-variant:normal;font-weight:normal;font-stretch:normal;text-align:start;line-height:125%;writing-mode:lr-tb;text-anchor:start;fill:#000000;font-family:Century Gothic;-inkscape-font-specification:Century Gothic"
           d="m 457.45505,383.63833 c -0.13682,0.85561 -0.39138,1.51744 -0.76366,1.98549 -0.3723,0.46805 -0.85925,0.79591 -1.46086,0.98361 -0.84524,0.26368 -1.67713,0.2204 -2.49566,-0.12984 -1.0015,-0.42957 -1.69847,-1.27331 -2.0909,-2.53122 -0.37847,-1.21317 -0.31863,-2.24118 0.17952,-3.08403 0.49815,-0.84285 1.16488,-1.39457 2.00018,-1.65516 0.61155,-0.19079 1.21338,-0.1985 1.8055,-0.0231 0.59211,0.17537 1.19903,0.58617 1.82075,1.23243 0.11091,-0.62384 0.33082,-1.13438 0.65974,-1.53161 0.32891,-0.39723 0.72954,-0.66952 1.20188,-0.81688 0.47731,-0.1489 0.98803,-0.15138 1.53216,-0.007 0.54412,0.14397 1.02542,0.42756 1.4439,0.85079 0.41845,0.42322 0.7192,0.92818 0.90225,1.51488 0.17836,0.57177 0.2118,1.1424 0.1003,1.71186 -0.11151,0.56946 -0.35045,1.06275 -0.7168,1.47985 -0.36638,0.41709 -0.79816,0.70319 -1.29535,0.85831 -0.49721,0.15511 -0.98043,0.16264 -1.44967,0.0226 -0.46926,-0.14004 -0.92702,-0.42689 -1.37328,-0.86053 z m 3.65202,-2.93159 c -0.1877,-0.60161 -0.52095,-1.0446 -0.99975,-1.32897 -0.47882,-0.28437 -0.96434,-0.34977 -1.45656,-0.19621 -0.48726,0.15201 -0.86222,0.50222 -1.12486,1.05064 -0.26266,0.54842 -0.30558,1.10604 -0.12874,1.67285 0.11322,0.36295 0.30975,0.6781 0.58957,0.94544 0.2798,0.26734 0.60339,0.44327 0.97077,0.52781 0.36735,0.0845 0.70765,0.0779 1.0209,-0.0198 0.4425,-0.13806 0.79436,-0.44424 1.05559,-0.91855 0.26121,-0.47432 0.28557,-1.05206 0.0731,-1.73323 z m -4.69717,1.52267 c -0.23578,-0.75575 -0.67842,-1.31328 -1.32792,-1.67261 -0.64951,-0.35933 -1.29993,-0.4374 -1.95126,-0.2342 -0.40273,0.12564 -0.74896,0.35368 -1.0387,0.68413 -0.28973,0.33045 -0.47028,0.72231 -0.54165,1.17559 -0.0714,0.45328 -0.0264,0.93847 0.13492,1.45556 0.24973,0.80049 0.68444,1.36322 1.30414,1.68821 0.61969,0.32498 1.24526,0.38898 1.87671,0.19199 0.61155,-0.19079 1.07679,-0.6101 1.39574,-1.25791 0.31893,-0.64782 0.36827,-1.32474 0.14802,-2.03076 z" />
        <path
           inkscape:connector-curvature="0"
           id="path7326"
           style="font-size:16px;font-style:normal;font-variant:normal;font-weight:normal;font-stretch:normal;text-align:start;line-height:125%;writing-mode:lr-tb;text-anchor:start;fill:#000000;font-family:Century Gothic;-inkscape-font-specification:Century Gothic"
           d="m 457.9695,387.40681 c 1.48135,-0.32045 2.66115,-0.40914 3.53938,-0.26606 0.87822,0.14307 1.58882,0.45962 2.13179,0.94965 0.54296,0.49003 0.89207,1.09393 1.04735,1.8117 0.15746,0.72795 0.0901,1.43261 -0.20215,2.11397 -0.29224,0.68135 -0.82117,1.28469 -1.58677,1.81 -0.76563,0.52531 -1.85603,0.94103 -3.2712,1.24717 -1.4101,0.30502 -2.56919,0.37857 -3.47727,0.22065 -0.90809,-0.15793 -1.63909,-0.48872 -2.19299,-0.99237 -0.5539,-0.50365 -0.90959,-1.11945 -1.06706,-1.8474 -0.15527,-0.71778 -0.089,-1.40888 0.19895,-2.07331 0.2879,-0.66444 0.80541,-1.24665 1.55253,-1.74664 0.74711,-0.5 1.85625,-0.90912 3.32744,-1.22736 z m 0.20669,1.06634 c -1.26756,0.2742 -2.20136,0.59476 -2.80141,0.9617 -0.60005,0.36693 -1.02016,0.80818 -1.26033,1.32374 -0.24018,0.51556 -0.30686,1.02023 -0.20004,1.51402 0.10792,0.49887 0.37285,0.92915 0.79479,1.29083 0.42194,0.36166 0.98549,0.58347 1.69063,0.6654 0.85978,0.10709 1.85218,0.039 2.97721,-0.2044 1.1301,-0.24447 2.02834,-0.56933 2.69471,-0.97458 0.66635,-0.40527 1.11862,-0.86413 1.35681,-1.37659 0.23817,-0.51246 0.3044,-1.01304 0.1987,-1.50174 -0.10793,-0.49888 -0.37596,-0.93115 -0.80408,-1.29681 -0.42815,-0.36566 -0.99152,-0.59283 -1.69011,-0.6815 -0.69862,-0.0887 -1.68424,0.005 -2.95688,0.27993 z" />
        <path
           inkscape:connector-curvature="0"
           id="path7328"
           style="font-size:16px;font-style:normal;font-variant:normal;font-weight:normal;font-stretch:normal;text-align:start;line-height:125%;writing-mode:lr-tb;text-anchor:start;fill:#000000;font-family:Century Gothic;-inkscape-font-specification:Century Gothic"
           d="m 454.8328,421.96138 0.69664,-0.88298 4.38632,3.53544 c -0.0951,-0.42768 -0.12531,-0.82298 -0.0906,-1.1859 0.0868,-0.90732 0.48841,-1.64586 1.2048,-2.21563 0.71638,-0.56977 1.55415,-0.80877 2.51331,-0.71699 0.65845,0.063 1.23745,0.27275 1.73703,0.62925 0.49955,0.35649 0.88055,0.83114 1.143,1.42394 0.26243,0.59279 0.36289,1.21064 0.30139,1.85354 -0.0605,0.63252 -0.26942,1.20246 -0.62665,1.7098 -0.35725,0.50734 -0.82529,0.88766 -1.40412,1.14098 -0.57885,0.2533 -1.17935,0.35019 -1.8015,0.29067 -0.47182,-0.0452 -0.9566,-0.18703 -1.45436,-0.42562 -0.49777,-0.23861 -1.08626,-0.63632 -1.76548,-1.19312 z m 5.97031,1.82697 c -0.064,0.66882 0.11616,1.26028 0.54048,1.7744 0.42431,0.5141 0.96828,0.8029 1.63193,0.86641 0.66362,0.0635 1.25249,-0.11692 1.76661,-0.54123 0.5141,-0.42432 0.80315,-0.97088 0.86716,-1.6397 0.0635,-0.66364 -0.11692,-1.25251 -0.54123,-1.76661 -0.42432,-0.51411 -0.9683,-0.80292 -1.63192,-0.86641 -0.66364,-0.0635 -1.25252,0.1169 -1.76662,0.54122 -0.51411,0.42431 -0.80291,0.96828 -0.86641,1.63192 z" />
        <path
           inkscape:connector-curvature="0"
           id="path7330"
           style="font-size:16px;font-style:normal;font-variant:normal;font-weight:normal;font-stretch:normal;text-align:start;line-height:125%;writing-mode:lr-tb;text-anchor:start;fill:#000000;font-family:Century Gothic;-inkscape-font-specification:Century Gothic"
           d="m 460.11982,429.32371 c 1.48999,0.27751 2.61225,0.65209 3.36678,1.12374 0.75451,0.47165 1.28734,1.03843 1.5985,1.70034 0.31114,0.66191 0.39948,1.35385 0.26502,2.07581 -0.13638,0.73219 -0.47109,1.35593 -1.00413,1.87121 -0.53306,0.51527 -1.25419,0.86704 -2.1634,1.05532 -0.90922,0.18825 -2.07555,0.14983 -3.49898,-0.11528 -1.41832,-0.26417 -2.51564,-0.6447 -3.29194,-1.14159 -0.77631,-0.49691 -1.32245,-1.08471 -1.63841,-1.76341 -0.31597,-0.67871 -0.40576,-1.38416 -0.26939,-2.11635 0.13447,-0.72196 0.46295,-1.33362 0.98546,-1.83496 0.5225,-0.50135 1.22494,-0.83806 2.1073,-1.01013 0.88236,-0.17208 2.06342,-0.12031 3.54319,0.1553 z m -0.22188,1.06328 c -1.27496,-0.23746 -2.26007,-0.30306 -2.95534,-0.1968 -0.69527,0.10626 -1.25336,0.35065 -1.67427,0.73318 -0.42091,0.38252 -0.67761,0.82211 -0.77012,1.31879 -0.0934,0.50178 -0.0156,1.00104 0.23361,1.49778 0.2492,0.49673 0.68307,0.91925 1.30163,1.26757 0.75143,0.43133 1.69294,0.75238 2.82452,0.96315 1.1367,0.2117 2.09067,0.25958 2.86193,0.14364 0.77124,-0.11596 1.3658,-0.36415 1.78368,-0.74459 0.41786,-0.38044 0.67257,-0.81644 0.76413,-1.30798 0.0934,-0.50179 0.0135,-1.00409 -0.23986,-1.50689 -0.25337,-0.50281 -0.68501,-0.93022 -1.29493,-1.28222 -0.60993,-0.35201 -1.55492,-0.64721 -2.83498,-0.88563 z" />
        <path
           inkscape:connector-curvature="0"
           id="path7332"
           style="font-size:16px;font-style:normal;font-variant:normal;font-weight:normal;font-stretch:normal;text-align:start;line-height:125%;writing-mode:lr-tb;text-anchor:start;fill:#000000;font-family:Century Gothic;-inkscape-font-specification:Century Gothic"
           d="m 458.4374,456.51415 -0.89479,2.07294 -10.55118,-4.55445 0.45204,-1.04723 9.51829,4.1086 0.71522,-1.65691 z" />
        <path
           inkscape:connector-curvature="0"
           id="path7334"
           style="font-size:16px;font-style:normal;font-variant:normal;font-weight:normal;font-stretch:normal;text-align:start;line-height:125%;writing-mode:lr-tb;text-anchor:start;fill:#000000;font-family:Century Gothic;-inkscape-font-specification:Century Gothic"
           d="m 450.34624,460.57679 c 1.33255,0.72209 2.28533,1.42351 2.85835,2.10426 0.573,0.68074 0.90581,1.38387 0.99844,2.10938 0.0926,0.7255 -0.036,1.41109 -0.3859,2.05677 -0.35485,0.65482 -0.86508,1.14547 -1.53071,1.47195 -0.66563,0.32647 -1.45998,0.43954 -2.38304,0.33921 -0.92307,-0.10034 -2.02112,-0.49543 -3.29414,-1.18525 -1.26845,-0.68736 -2.19566,-1.38677 -2.78164,-2.09823 -0.58598,-0.71148 -0.92499,-1.4387 -1.01703,-2.18166 -0.092,-0.74297 0.0394,-1.44187 0.3942,-2.09669 0.34988,-0.64568 0.85048,-1.12674 1.50179,-1.4432 0.65132,-0.31646 1.42325,-0.42094 2.31578,-0.31346 0.89254,0.10749 2.0005,0.51979 3.3239,1.23692 z m -0.53798,0.94361 c -1.14023,-0.61788 -2.05748,-0.98312 -2.75175,-1.09572 -0.69428,-0.11261 -1.30047,-0.0516 -1.81858,0.18302 -0.51811,0.23462 -0.89752,0.57402 -1.13821,1.01821 -0.24318,0.44876 -0.32255,0.94779 -0.23811,1.49708 0.0844,0.54928 0.36743,1.08471 0.84897,1.60631 0.58246,0.64143 1.37969,1.23634 2.3917,1.78474 1.01659,0.55087 1.90966,0.88967 2.67921,1.01642 0.76954,0.12673 1.41161,0.0733 1.9262,-0.16025 0.51457,-0.23358 0.89097,-0.57017 1.12919,-1.00976 0.24317,-0.44878 0.32149,-0.95133 0.23496,-1.50767 -0.0865,-0.55635 -0.3659,-1.09575 -0.83809,-1.61819 -0.47219,-0.52245 -1.28069,-1.09385 -2.42549,-1.71419 z" />
        <path
           inkscape:connector-curvature="0"
           id="path7336"
           style="font-size:16px;font-style:normal;font-variant:normal;font-weight:normal;font-stretch:normal;text-align:start;line-height:125%;writing-mode:lr-tb;text-anchor:start;fill:#000000;font-family:Century Gothic;-inkscape-font-specification:Century Gothic"
           d="m 445.81356,468.79819 c 1.2633,0.83736 2.15015,1.62047 2.66057,2.34934 0.51041,0.72885 0.77959,1.45871 0.80754,2.18958 0.0279,0.73085 -0.16097,1.40234 -0.56669,2.01446 -0.4115,0.62079 -0.96322,1.06428 -1.65516,1.33048 -0.69195,0.26618 -1.4932,0.30839 -2.40373,0.12664 -0.91055,-0.18177 -1.96925,-0.67263 -3.17612,-1.47258 -1.20252,-0.79709 -2.06409,-1.57593 -2.5847,-2.33653 -0.5206,-0.76062 -0.79382,-1.51503 -0.81964,-2.26322 -0.0258,-0.74821 0.16701,-1.43271 0.5785,-2.0535 0.40574,-0.61212 0.947,-1.04692 1.62381,-1.3044 0.6768,-0.25748 1.45495,-0.29313 2.33445,-0.10695 0.87949,0.18617 1.94655,0.69507 3.20117,1.52668 z m -0.6195,0.8922 c -1.08098,-0.71651 -1.96224,-1.16162 -2.6438,-1.33531 -0.68156,-0.17371 -1.29078,-0.16667 -1.82765,0.0211 -0.53686,0.18777 -0.94486,0.4922 -1.22398,0.91331 -0.282,0.42544 -0.40529,0.91546 -0.36987,1.47007 0.0354,0.55461 0.26983,1.11302 0.70324,1.67524 0.52331,0.69054 1.26467,1.35378 2.22409,1.98973 0.96376,0.6388 1.82328,1.05544 2.57857,1.2499 0.75528,0.19444 1.39955,0.19815 1.93282,0.0111 0.53325,-0.18705 0.938,-0.48895 1.21425,-0.9057 0.282,-0.42545 0.40455,-0.91909 0.36768,-1.48091 -0.0369,-0.56183 -0.26734,-1.12386 -0.69136,-1.6861 -0.42402,-0.56225 -1.17869,-1.20307 -2.26399,-1.92245 z" />
      </g>
      <text
         sodipodi:linespacing="125%"
         id="text7338"
         y="451.41077"
         x="52.278763"
         style="font-size:8.01447773px;font-style:normal;font-variant:normal;font-weight:normal;font-stretch:normal;text-align:start;line-height:125%;letter-spacing:0px;word-spacing:0px;writing-mode:lr-tb;text-anchor:start;fill:#000000;fill-opacity:1;stroke:none;font-family:Century Gothic;-inkscape-font-specification:Century Gothic"
         xml:space="preserve"><tspan
           y="451.41077"
           x="52.278763"
           id="tspan7340"
           sodipodi:role="line">TOTAL CFM</tspan></text>
    </g>
    <g
       transform="matrix(0.36999384,0,0,0.34641072,-3.7290052,-55.678536)"
       id="g7342"
       inkscape:export-filename="/home/zag/Syncthing/Work/Cloud/scada-env/build/assets/Gauge_Composite1.svg.png"
       inkscape:export-xdpi="90"
       inkscape:export-ydpi="90">
      <g
         id="g7344"
         transform="translate(-172.18252,-28.217551)">
        <g
           style="fill:#666666;stroke:none"
           transform="matrix(0.10124912,0,0,0.10124912,211.66091,196.24402)"
           id="g7346"
           inkscape:export-filename="J:\Autonetic\Halton\Halton Whiteboards\Whiteboard Styling v1.png"
           inkscape:export-xdpi="128.77"
           inkscape:export-ydpi="128.77">
          <path
             style="fill:#666666;fill-opacity:1;stroke:none"
             d="m 122.79786,466.38228 19.52293,-90.44295"
             id="path7348"
             inkscape:connector-curvature="0" />
          <path
             style="fill:#666666;fill-opacity:1;stroke:none"
             d="m 196.50687,411.79776 -12.35124,55.38137 27.8899,0 19.52292,-91.15794 -26.38912,0 -5.48504,20.47046 -35.28226,0 5.40022,-20.15389 -27.88989,0 -19.52293,90.04452 27.88989,0 11.95282,-54.98294 z"
             id="path7350"
             inkscape:connector-curvature="0"
             sodipodi:nodetypes="ccccccccccccc" />
          <path
             inkscape:connector-curvature="0"
             style="fill:#666666;fill-opacity:1;stroke:none"
             d="m 272.5,87.8125 c -11.63004,-0.05644 -22.97736,1.867156 -34.15625,4.96875 l 0,12.34375 23.5,-2.40625 c 19.39012,-2.9218 15.66402,6.52354 13.9375,10.375 l -37.03125,5.5625 c -13.55829,3.47859 -25.52636,32.46504 -3.1875,38.65625 14.31555,4.28401 29.64761,2.34327 45,0.40625 5.97641,-0.39843 9.96883,-3.20323 13.15625,-7.1875 l 9.5625,-40.21875 c 3.07056,-16.47509 -6.57346,-17.94193 -14.75,-21.125 C 283.1187,88.278666 277.78638,87.838156 272.5,87.8125 z m 0.5,38.4375 -4.375,18.71875 c -16.46831,2.39056 -23.37494,-0.54709 -20.71875,-8.78125 1.17755,-5.11758 6.99796,-9.04948 25.09375,-9.9375 z"
             transform="translate(0,308.2677)"
             id="path7352" />
          <path
             style="fill:#666666;fill-opacity:1;stroke:none"
             d="m 299.69949,467.57756 19.1245,-91.63823 26.69462,0 -19.52293,91.2398 z"
             id="path7354"
             inkscape:connector-curvature="0" />
          <path
             style="fill:#666666;fill-opacity:1;stroke:none"
             d="m 353.48715,376.33776 -16.33551,75.70114 c 1.4609,22.97596 42.36608,15.67147 49.80339,12.74967 l -0.79686,-13.14809 -13.94495,0.39842 c -6.35972,0.84082 -7.41979,-2.86092 -6.37483,-8.36697 l 7.17169,-31.87417 20.71821,-0.79685 3.18742,-15.14023 -20.71821,0 4.38269,-19.1245 z"
             id="path7356"
             inkscape:connector-curvature="0"
             sodipodi:nodetypes="cccccccccccc" />
          <path
             style="fill:#666666;fill-opacity:1;stroke:none"
             d="m 470.62472,467.17913 13.1481,-60.56091 c 2.6293,-4.84332 8.12966,-7.7726 17.13236,-8.36697 l 37.45215,-1.99214 c 11.35457,0.99667 17.46221,7.24027 17.13237,19.92135 l -11.55439,50.99867 -26.29619,0.39843 10.35911,-46.61597 c 3.72254,-10.27591 -5.25559,-11.58665 -19.52293,-9.16383 l -11.15596,55.7798 z"
             id="path7358"
             inkscape:connector-curvature="0"
             sodipodi:nodetypes="ccccccccccc" />
          <path
             inkscape:connector-curvature="0"
             style="fill:#666666;fill-opacity:1;stroke:none"
             d="m 425.21875,88.78125 c -14.15837,0.63678 -26.20664,11.72219 -27.09375,19.125 L 391.75,139.375 c -1.19528,9.69506 10.33626,19.79687 22.6875,19.53125 L 440.75,158.125 c 6.64045,-0.53124 25.62507,-7.04732 28.28125,-24.3125 l 4.375,-23.5 C 474.0703,98.35969 464.77312,89.97653 452.6875,88.78125 l -27.46875,0 z m 7.5625,14.34375 9.5625,0 c 3.18,0.5985 5.5214,2.11175 3.96875,7.96875 l -4.78125,24.71875 c -1.04765,6.81031 -4.29364,8.1021 -7.96875,8.34375 L 424,143.78125 c -5.97539,0.56102 -6.43249,-3.55003 -5.5625,-8.78125 l 4.375,-21.90625 c 1.43456,-5.64958 4.04334,-9.86669 9.96875,-9.96875 z"
             transform="translate(0,308.2677)"
             id="path7360" />
        </g>
        <g
           id="g7362"
           transform="matrix(0.10124912,0,0,0.10124912,211.07746,195.75781)"
           style="stroke:none"
           inkscape:export-filename="J:\Autonetic\Halton\Halton Whiteboards\Whiteboard Styling v1.png"
           inkscape:export-xdpi="128.77"
           inkscape:export-ydpi="128.77">
          <path
             inkscape:connector-curvature="0"
             id="path7364"
             d="m 122.79786,466.38228 19.52293,-90.44295"
             style="fill:#b3b3b3;fill-opacity:1;stroke:none" />
          <path
             sodipodi:nodetypes="ccccccccccccc"
             inkscape:connector-curvature="0"
             id="path7366"
             d="m 196.50687,411.79776 -12.35124,55.38137 27.8899,0 19.52292,-91.15794 -26.38912,0 -5.48504,20.47046 -35.28226,0 5.40022,-20.15389 -27.88989,0 -19.52293,90.04452 27.88989,0 11.95282,-54.98294 z"
             style="fill:#73b8d9;fill-opacity:1;stroke:none" />
          <path
             id="path7368"
             transform="translate(0,308.2677)"
             d="m 272.5,87.8125 c -11.63004,-0.05644 -22.97736,1.867156 -34.15625,4.96875 l 0,12.34375 23.5,-2.40625 c 19.39012,-2.9218 15.66402,6.52354 13.9375,10.375 l -37.03125,5.5625 c -13.55829,3.47859 -25.52636,32.46504 -3.1875,38.65625 14.31555,4.28401 29.64761,2.34327 45,0.40625 5.97641,-0.39843 9.96883,-3.20323 13.15625,-7.1875 l 9.5625,-40.21875 c 3.07056,-16.47509 -6.57346,-17.94193 -14.75,-21.125 C 283.1187,88.278666 277.78638,87.838156 272.5,87.8125 z m 0.5,38.4375 -4.375,18.71875 c -16.46831,2.39056 -23.37494,-0.54709 -20.71875,-8.78125 1.17755,-5.11758 6.99796,-9.04948 25.09375,-9.9375 z"
             style="fill:#73b8d9;fill-opacity:1;stroke:none"
             inkscape:connector-curvature="0" />
          <path
             inkscape:connector-curvature="0"
             id="path7370"
             d="m 299.69949,467.57756 19.1245,-91.63823 26.69462,0 -19.52293,91.2398 z"
             style="fill:#73b8d9;fill-opacity:1;stroke:none" />
          <path
             sodipodi:nodetypes="cccccccccccc"
             inkscape:connector-curvature="0"
             id="path7372"
             d="m 353.48715,376.33776 -16.33551,75.70114 c 1.4609,22.97596 42.36608,15.67147 49.80339,12.74967 l -0.79686,-13.14809 -13.94495,0.39842 c -6.35972,0.84082 -7.41979,-2.86092 -6.37483,-8.36697 l 7.17169,-31.87417 20.71821,-0.79685 3.18742,-15.14023 -20.71821,0 4.38269,-19.1245 z"
             style="fill:#73b8d9;fill-opacity:1;stroke:none" />
          <path
             sodipodi:nodetypes="ccccccccccc"
             inkscape:connector-curvature="0"
             id="path7374"
             d="m 470.62472,467.17913 13.1481,-60.56091 c 2.6293,-4.84332 8.12966,-7.7726 17.13236,-8.36697 l 37.45215,-1.99214 c 11.35457,0.99667 17.46221,7.24027 17.13237,19.92135 l -11.55439,50.99867 -26.29619,0.39843 10.35911,-46.61597 c 3.72254,-10.27591 -5.25559,-11.58665 -19.52293,-9.16383 l -11.15596,55.7798 z"
             style="fill:#73b8d9;fill-opacity:1;stroke:none" />
          <path
             id="path7376"
             transform="translate(0,308.2677)"
             d="m 425.21875,88.78125 c -14.15837,0.63678 -26.20664,11.72219 -27.09375,19.125 L 391.75,139.375 c -1.19528,9.69506 10.33626,19.79687 22.6875,19.53125 L 440.75,158.125 c 6.64045,-0.53124 25.62507,-7.04732 28.28125,-24.3125 l 4.375,-23.5 C 474.0703,98.35969 464.77312,89.97653 452.6875,88.78125 l -27.46875,0 z m 7.5625,14.34375 9.5625,0 c 3.18,0.5985 5.5214,2.11175 3.96875,7.96875 l -4.78125,24.71875 c -1.04765,6.81031 -4.29364,8.1021 -7.96875,8.34375 L 424,143.78125 c -5.97539,0.56102 -6.43249,-3.55003 -5.5625,-8.78125 l 4.375,-21.90625 c 1.43456,-5.64958 4.04334,-9.86669 9.96875,-9.96875 z"
             style="fill:#73b8d9;fill-opacity:1;stroke:none"
             inkscape:connector-curvature="0" />
        </g>
      </g>
    </g>
    <g
       transform="matrix(0.36999384,0,0,0.34641072,-4.5846011,-77.156002)"
       id="g7378"
       inkscape:export-filename="/home/zag/Syncthing/Work/Cloud/scada-env/build/assets/Gauge_Composite1.svg.png"
       inkscape:export-xdpi="90"
       inkscape:export-ydpi="90">
      <path
         sodipodi:nodetypes="cccccccccccccccscccccccccccccccccccccccccccscccccccccccccccssscsccccsscccccc"
         inkscape:connector-curvature="0"
         id="path7380"
         d="m 94.12243,239.37613 c -1.74041,1.57428 -3.51522,3.11512 -5.51479,4.3451 -6.00181,5.06444 -8.02498,13.07585 -12.32795,19.41802 -2.77831,5.09653 1.36426,14.21707 -1.10118,19.54031 -6.40235,-3.67514 -26.31782,-2.38663 -34.0355,5.30234 -6.5229,4.70548 -9.19468,12.64145 -10.66816,20.24116 -0.2533,0.9318 -0.48976,3.63658 -0.5488,5.33017 0.099,0.18924 0.20668,0.37887 0.30786,0.56675 0.0592,-0.31396 0.12217,-0.69206 0.20079,-1.21447 6.90683,-17.82818 27.50021,-11.78115 38.68022,-21.18636 0.68444,-0.20281 0.80389,-6.38184 2.38966,-6.30535 -4.48197,10.58431 -13.37369,20.30137 -14.29909,31.80982 -0.01,6.94082 -1.03974,14.01724 -0.0402,20.90237 0.3174,0.12537 0.64311,0.24575 0.96375,0.36435 0.0448,0.0167 0.089,0.0374 0.13385,0.054 0.27593,0.10113 0.55177,0.20045 0.8299,0.29687 0.64728,0.2244 1.29642,0.43317 1.95426,0.63422 0.28575,-0.50323 0.59098,-0.99434 0.93698,-1.47085 9.3692,-11.46675 4.88873,-27.22471 8.63359,-38.30977 -0.8428,-2.25658 0.77134,-4.80429 0.32125,-1.01206 -1.12263,13.36064 -0.93417,26.87119 -1.36532,40.2934 0.15882,0.83624 0.39538,1.73785 0.61574,2.41545 0.17858,0.0207 0.35627,0.0351 0.53541,0.054 -0.0297,-0.35343 -0.0787,-0.81975 -0.16063,-1.40338 1.96214,-12.82341 1.03071,-25.49185 1.36532,-37.52711 0.61453,-2.62241 3.5712,-7.84677 4.00223,-2.07809 4.65865,7.76041 9.6252,17.0165 18.96711,19.62042 6.7128,1.74139 13.54817,4.16784 20.54659,3.8998 0.1299,-0.1478 0.2594,-0.29602 0.38818,-0.4453 0.14623,-0.1702 0.29761,-0.34069 0.44171,-0.51278 0.12711,-0.15097 0.24949,-0.30639 0.37479,-0.4588 0.14334,-0.17509 0.28721,-0.3493 0.42834,-0.52627 0.005,-0.008 0.008,-0.0184 0.0134,-0.027 2.1559,-3.77728 2.15562,-8.88295 4.79197,-12.54951 2.23176,-4.38604 4.56051,-8.92605 6.27775,-13.62905 0.005,-0.0358 0.009,-0.0721 0.0134,-0.10796 0.0662,-0.52475 0.12325,-1.04936 0.17401,-1.57881 0.0348,-0.35817 0.0659,-0.71932 0.0937,-1.07952 3.4e-4,-0.005 -3.3e-4,-0.009 0,-0.0135 0.0266,-0.35303 0.0607,-0.71109 0.0803,-1.06603 0.005,-0.0899 0.009,-0.17992 0.0134,-0.26989 0.006,-0.11694 0.008,-0.23369 0.0134,-0.35084 0.0146,-0.33332 0.0184,-0.66367 0.0268,-0.99856 0.0114,-0.4526 0.0268,-0.90754 0.0268,-1.36291 0,-0.86118 -0.0265,-1.72629 -0.0669,-2.57737 -0.002,-0.0496 0.003,-0.0989 0,-0.14844 -0.01,-0.19531 -0.0283,-0.3855 -0.0402,-0.58024 -0.0704,-1.15045 -0.17885,-2.28468 -0.32125,-3.41401 -0.0385,-0.30541 -0.0768,-0.61384 -0.12047,-0.9176 -0.0194,-0.13492 -0.0332,-0.27024 -0.0535,-0.40483 -0.0337,-0.22278 -0.0706,-0.43935 -0.10709,-0.66121 -4.94168,-0.3397 -10.34984,0.56176 -15.35305,0.58025 -8.62184,0.52253 -17.25841,0.49471 -25.86059,1.32242 -3.77481,-0.37429 5.94641,-0.0122 7.41551,-1.74073 7.83665,-1.6229 15.53801,-3.97602 23.08982,-6.6661 3.13788,-0.98538 6.65328,-2.20601 7.50921,-4.8039 -0.0713,-0.17518 -0.14109,-0.35204 -0.21417,-0.52627 -0.10522,-0.25079 -0.21231,-0.50687 -0.32125,-0.75567 -0.0121,-0.0277 -0.028,-0.0533 -0.0402,-0.081 -0.1736,-0.39461 -0.35259,-0.78456 -0.53542,-1.17399 -1.36947,-2.91687 -2.99114,-5.67909 -4.84551,-8.27189 -1.05964,-1.4816 -2.19701,-2.91706 -3.39989,-4.27763 -0.30073,-0.34014 -0.60097,-0.66642 -0.91021,-0.99856 -0.30924,-0.33214 -0.63277,-0.6611 -0.95037,-0.98507 -0.63519,-0.64795 -1.28669,-1.28844 -1.95426,-1.90267 -0.0281,-0.0259 -0.0521,-0.0551 -0.0803,-0.081 -0.30517,-0.27962 -0.6119,-0.55075 -0.92359,-0.82313 -0.005,-0.004 -0.009,-0.009 -0.0134,-0.0135 -0.67872,-0.59248 -1.37949,-1.17007 -2.08812,-1.72724 -0.71357,-0.56107 -1.43929,-1.0954 -2.18182,-1.6193 -2.59883,-1.83362 -5.3699,-3.43678 -8.28556,-4.77691 -0.0542,-0.0249 -0.1063,-0.0562 -0.16062,-0.081 -0.36456,-0.16617 -0.72866,-0.32787 -1.09761,-0.48579 -0.0222,-0.01 -0.0447,-0.0175 -0.0669,-0.027 -0.82297,-0.35075 -1.65918,-0.67614 -2.50307,-0.98506 z"
         style="opacity:0.08849559;fill:#b3b3b3;fill-opacity:1;stroke:none" />
      <path
         sodipodi:nodetypes="ccccccccccccccccccccc"
         inkscape:connector-curvature="0"
         id="path7382"
         d="m 73.8719,236.52848 c -14.10962,12.01772 -10.93068,43.34236 -1.77625,55.78551 3.85613,4.15835 -0.73683,12.52827 -1.70997,17.68078 -0.95623,7.69745 -3.71237,14.96424 -5.88123,22.35866 -4.4e-4,2.87721 -1.10876,6.41429 -1.26079,9.12344 3.46551,-4.17869 6.06133,-9.32413 4.99537,-14.84833 0.56726,-5.29417 3.15036,-10.37853 2.47057,-15.99338 0.0127,-3.30619 1.90038,-7.53301 2.45495,-1.96152 4.62062,7.53016 8.92097,16.09532 16.87663,20.79042 4.63299,3.11017 8.51627,1.74557 14.03696,2.79632 6.56918,2.12404 5.55228,-4.33838 10.32335,-6.90797 3.14345,-3.88993 6.57271,-7.82027 7.33475,-12.92406 2.08297,-5.96238 4.15027,-12.05119 7.24247,-17.58204 -1.03123,-8.36006 1.77418,-12.47224 -2.20077,-16.94706 -3.75288,2.86015 -5.53285,2.26852 -10.75226,1.9557 -5.75511,-0.17982 -11.63699,-0.80427 -17.21149,0.91667 -5.75327,0.6726 -11.69882,1.6082 -17.43961,0.48065 -1.40326,-4.18027 1.70184,-9.8972 2.53731,-14.53698 3.62835,-8.30691 7.44781,-16.66551 13.09965,-23.83163 2.62439,-6.59862 -7.98227,-5.17157 -12.03195,-5.36292 -6.87423,-0.0841 -0.36752,-2.42737 -7.23889,-2.29697"
         style="opacity:0.23451329;fill:#c8beb7;fill-opacity:1;stroke:none" />
      <path
         style="opacity:0.71681417;fill:#ffffff;fill-opacity:1;stroke:none"
         d="m 27.76427,279.22865 c -0.19803,1.14685 -0.7634,10.90709 -0.27702,11.16823 0.47334,0.25414 0.41213,-0.99425 0.66627,-1.46759 0.58884,-1.09671 1.0687,-2.79029 1.46188,-4.08261 0.24421,-0.80268 0.96143,-1.16952 1.30466,-1.97665 1.26095,-2.9652 2.80268,-5.44663 4.52066,-8.64639 0.95039,-1.77012 1.43496,-6.20132 2.80837,-7.49705 1.82701,-1.7237 7.95888,-5.81224 10.62366,-5.7347 1.46683,0.0427 2.89999,0.77599 4.43066,1.04029 0.38963,0.0673 1.21045,-0.36472 1.5969,-0.48116 4.30002,-1.29564 7.01669,-4.19611 9.93965,-6.95377 1.17323,-1.10688 0.77129,-3.92962 1.44602,-5.18632 0.8061,-1.50137 3.76742,-3.0354 5.71756,-3.623 0.40219,-0.12119 6.63334,-5.83915 6.95058,-4.78631 -27.17666,-3.58319 -46.65384,21.74557 -51.18985,38.22703 z"
         id="path7384"
         inkscape:connector-curvature="0"
         sodipodi:nodetypes="cssssssscsssscc"
         inkscape:transform-center-x="23.136458"
         inkscape:transform-center-y="-25.171826" />
      <path
         inkscape:transform-center-y="14.551342"
         inkscape:transform-center-x="-33.935847"
         sodipodi:nodetypes="csssssscsssscc"
         inkscape:connector-curvature="0"
         id="path7386"
         d="m 125.39855,273.28336 c -0.52901,-0.0937 -0.0813,1.07322 -0.17508,1.60223 -0.21721,1.22569 -0.14465,2.98444 -0.11494,4.33492 0.0185,0.83881 -0.54849,1.41112 -0.62273,2.28506 -0.27274,3.21061 -0.96319,6.04922 -1.59694,9.62529 -0.3506,1.97829 0.57173,6.33946 -0.32879,7.99904 -1.19792,2.20773 -5.74785,8.0055 -8.30377,8.76333 -1.40691,0.41715 -2.99733,0.16765 -4.53405,0.3942 -0.39118,0.0576 -1.03621,0.72419 -1.36702,0.95543 -3.68103,2.57271 -5.35701,6.17607 -7.27352,9.70811 -0.76928,1.41771 0.49341,3.97408 0.24454,5.37859 -0.29736,1.67793 -2.63215,4.05941 -4.30157,5.22619 -0.34429,0.24066 -4.48011,7.61745 -5.11003,6.71617 21.10487,-2.04926 42.03224,-32.64452 33.4839,-62.98856 z"
         style="opacity:0.50884956;fill:#b3b3b3;fill-opacity:1;stroke:none" />
      <g
         id="g7388"
         transform="translate(-141.66397,-2)">
        <path
           inkscape:transform-center-y="-4.4656144"
           inkscape:transform-center-x="-27.035778"
           style="opacity:0.42920353;fill:#ffffff;fill-opacity:1;stroke:none"
           d="m 223.96994,289.42051 c 6.50856,1.8587 38.06189,-6.11564 40.66809,-13.29576 0.26707,-3.53816 6.10488,15.65205 2.77213,17.39395 -9.29967,-13.32445 -45.20095,5.37314 -45.20095,5.37314 4.67442,-6.23787 6.1882,-5.6594 1.76073,-9.47133 z"
           id="path7390"
           inkscape:connector-curvature="0"
           sodipodi:nodetypes="ccccc" />
        <path
           style="opacity:0.3982301;fill:#666666;stroke:none"
           d="m 218.37014,238.49556 c -29.11635,0 -52.71453,23.61245 -52.71453,52.7288 0,27.89674 21.66603,50.72196 49.08987,52.5861 -25.28555,-1.95708 -45.19408,-23.36571 -45.19408,-49.48944 0,-27.41368 21.93659,-49.63214 48.98998,-49.63214 27.0534,0 48.97571,22.21846 48.97571,49.63214 0,25.1612 -18.47188,45.94338 -42.42564,49.18976 25.94575,-3.29812 46.00749,-25.44479 46.00749,-52.28642 0,-29.11635 -23.61245,-52.7288 -52.7288,-52.7288 z"
           id="path7392"
           inkscape:connector-curvature="0" />
      </g>
    </g>
  </g>
  <g
     inkscape:groupmode="layer"
     id="layer2"
     inkscape:label="Слой"
     style="display:inline">
    <g
       style="display:inline"
       transform="matrix(0.36213291,-0.07102754,0.07586299,0.33905084,-17.004003,-33.15931)"
       inkscape:transform-center-y="-17.990136"
       inkscape:transform-center-x="-1.1187622"
       id="g7394"
       inkscape:export-filename="/home/zag/Syncthing/Work/Cloud/scada-env/build/assets/Gauge_Composite1.svg.png"
       inkscape:export-xdpi="90"
       inkscape:export-ydpi="90">
      <path
         style="fill:#808080;fill-opacity:1;stroke:none"
         d="m 87.217895,132.08601 -16.572198,63.66452 1.49626,3.51026 2.73707,-2.94141 z"
         id="path7396"
         inkscape:connector-curvature="0"
         sodipodi:nodetypes="ccccc"
         inkscape:transform-center-y="-27.806222"
         inkscape:transform-center-x="-8.271706" />
      <path
         inkscape:transform-center-y="-102.14286"
         sodipodi:nodetypes="ccccc"
         inkscape:connector-curvature="0"
         id="path7398"
         d="m 85.652458,131.3857 -16.181733,63.76488 1.517742,3.50103 2.718995,-2.95813 z"
         style="fill:#a02c2c;fill-opacity:1;stroke:none" />
      <path
         inkscape:transform-center-y="-102.13396"
         inkscape:transform-center-x="4.419635"
         id="path7400"
         d="m 85.650617,131.38901 -16.179892,63.76157 1.517742,3.50103 14.66215,-67.2626 z"
         style="fill:#ff2a2a;fill-opacity:1;stroke:none"
         inkscape:connector-curvature="0" />
    </g>
  </g>
</svg>
